<mxfile host="app.diagrams.net" agent="Mozilla/5.0 (Windows NT 10.0; Win64; x64) AppleWebKit/537.36 (KHTML, like Gecko) Chrome/137.0.0.0 Safari/537.36 OPR/121.0.0.0" version="28.2.5">
  <diagram name="1 oldal" id="s51K9ln7KrZO0yg4u3iI">
    <mxGraphModel dx="1451" dy="848" grid="1" gridSize="10" guides="1" tooltips="1" connect="1" arrows="1" fold="1" page="1" pageScale="1" pageWidth="827" pageHeight="1169" math="0" shadow="0">
      <root>
        <mxCell id="0" />
        <mxCell id="1" parent="0" />
        <mxCell id="KlxNLc5BhY0RjW48FKh_-1" value="A86ANU_kurzusfelvetel" style="ellipse;whiteSpace=wrap;html=1;" vertex="1" parent="1">
          <mxGeometry x="321" y="20" width="186" height="90" as="geometry" />
        </mxCell>
        <mxCell id="KlxNLc5BhY0RjW48FKh_-2" value="kurzusok" style="ellipse;whiteSpace=wrap;html=1;" vertex="1" parent="1">
          <mxGeometry x="840" y="180" width="120" height="80" as="geometry" />
        </mxCell>
        <mxCell id="KlxNLc5BhY0RjW48FKh_-3" value="hallgato" style="ellipse;whiteSpace=wrap;html=1;" vertex="1" parent="1">
          <mxGeometry x="51" y="180" width="120" height="80" as="geometry" />
        </mxCell>
        <mxCell id="KlxNLc5BhY0RjW48FKh_-4" value="hnev" style="ellipse;whiteSpace=wrap;html=1;" vertex="1" parent="1">
          <mxGeometry x="-100" y="360" width="120" height="80" as="geometry" />
        </mxCell>
        <mxCell id="KlxNLc5BhY0RjW48FKh_-5" value="szulev" style="ellipse;whiteSpace=wrap;html=1;" vertex="1" parent="1">
          <mxGeometry x="51" y="360" width="120" height="80" as="geometry" />
        </mxCell>
        <mxCell id="KlxNLc5BhY0RjW48FKh_-6" value="szak" style="ellipse;whiteSpace=wrap;html=1;" vertex="1" parent="1">
          <mxGeometry x="204" y="360" width="120" height="80" as="geometry" />
        </mxCell>
        <mxCell id="KlxNLc5BhY0RjW48FKh_-7" value="kurzus" style="ellipse;whiteSpace=wrap;html=1;" vertex="1" parent="1">
          <mxGeometry x="387" y="360" width="120" height="80" as="geometry" />
        </mxCell>
        <mxCell id="KlxNLc5BhY0RjW48FKh_-8" value="kurzusnev" style="ellipse;whiteSpace=wrap;html=1;" vertex="1" parent="1">
          <mxGeometry x="540" y="360" width="120" height="80" as="geometry" />
        </mxCell>
        <mxCell id="KlxNLc5BhY0RjW48FKh_-9" value="kredit" style="ellipse;whiteSpace=wrap;html=1;" vertex="1" parent="1">
          <mxGeometry x="690" y="360" width="120" height="80" as="geometry" />
        </mxCell>
        <mxCell id="KlxNLc5BhY0RjW48FKh_-10" value="hely" style="ellipse;whiteSpace=wrap;html=1;" vertex="1" parent="1">
          <mxGeometry x="840" y="360" width="120" height="80" as="geometry" />
        </mxCell>
        <mxCell id="KlxNLc5BhY0RjW48FKh_-11" value="oktato" style="ellipse;whiteSpace=wrap;html=1;" vertex="1" parent="1">
          <mxGeometry x="1150" y="360" width="120" height="80" as="geometry" />
        </mxCell>
        <mxCell id="KlxNLc5BhY0RjW48FKh_-12" value="oraado" style="ellipse;whiteSpace=wrap;html=1;" vertex="1" parent="1">
          <mxGeometry x="1310" y="360" width="120" height="80" as="geometry" />
        </mxCell>
        <mxCell id="KlxNLc5BhY0RjW48FKh_-13" value="idopont" style="ellipse;whiteSpace=wrap;html=1;" vertex="1" parent="1">
          <mxGeometry x="990" y="360" width="120" height="80" as="geometry" />
        </mxCell>
        <mxCell id="KlxNLc5BhY0RjW48FKh_-14" value="" style="endArrow=none;html=1;rounded=0;fontSize=12;startSize=8;endSize=8;curved=1;entryX=0.5;entryY=1;entryDx=0;entryDy=0;exitX=0.5;exitY=0;exitDx=0;exitDy=0;" edge="1" parent="1" source="KlxNLc5BhY0RjW48FKh_-15" target="KlxNLc5BhY0RjW48FKh_-4">
          <mxGeometry width="50" height="50" relative="1" as="geometry">
            <mxPoint x="-40" y="520" as="sourcePoint" />
            <mxPoint x="80" y="560" as="targetPoint" />
          </mxGeometry>
        </mxCell>
        <mxCell id="KlxNLc5BhY0RjW48FKh_-15" value="" style="rounded=0;whiteSpace=wrap;html=1;" vertex="1" parent="1">
          <mxGeometry x="-60" y="525" width="40" height="60" as="geometry" />
        </mxCell>
        <mxCell id="KlxNLc5BhY0RjW48FKh_-16" value="" style="endArrow=none;html=1;rounded=0;fontSize=12;startSize=8;endSize=8;curved=1;entryX=0.5;entryY=1;entryDx=0;entryDy=0;exitX=0.5;exitY=0;exitDx=0;exitDy=0;" edge="1" parent="1" source="KlxNLc5BhY0RjW48FKh_-17">
          <mxGeometry width="50" height="50" relative="1" as="geometry">
            <mxPoint x="111" y="520" as="sourcePoint" />
            <mxPoint x="111" y="440" as="targetPoint" />
          </mxGeometry>
        </mxCell>
        <mxCell id="KlxNLc5BhY0RjW48FKh_-17" value="" style="rounded=0;whiteSpace=wrap;html=1;" vertex="1" parent="1">
          <mxGeometry x="91" y="525" width="40" height="60" as="geometry" />
        </mxCell>
        <mxCell id="KlxNLc5BhY0RjW48FKh_-18" value="" style="endArrow=none;html=1;rounded=0;fontSize=12;startSize=8;endSize=8;curved=1;entryX=0.5;entryY=1;entryDx=0;entryDy=0;exitX=0.5;exitY=0;exitDx=0;exitDy=0;" edge="1" parent="1" source="KlxNLc5BhY0RjW48FKh_-19">
          <mxGeometry width="50" height="50" relative="1" as="geometry">
            <mxPoint x="264" y="520" as="sourcePoint" />
            <mxPoint x="264" y="440" as="targetPoint" />
          </mxGeometry>
        </mxCell>
        <mxCell id="KlxNLc5BhY0RjW48FKh_-19" value="" style="rounded=0;whiteSpace=wrap;html=1;" vertex="1" parent="1">
          <mxGeometry x="244" y="525" width="40" height="60" as="geometry" />
        </mxCell>
        <mxCell id="KlxNLc5BhY0RjW48FKh_-20" value="" style="endArrow=none;html=1;rounded=0;fontSize=12;startSize=8;endSize=8;curved=1;entryX=0.5;entryY=1;entryDx=0;entryDy=0;exitX=0.5;exitY=0;exitDx=0;exitDy=0;" edge="1" parent="1" source="KlxNLc5BhY0RjW48FKh_-21">
          <mxGeometry width="50" height="50" relative="1" as="geometry">
            <mxPoint x="447" y="520" as="sourcePoint" />
            <mxPoint x="447" y="440" as="targetPoint" />
          </mxGeometry>
        </mxCell>
        <mxCell id="KlxNLc5BhY0RjW48FKh_-21" value="" style="rounded=0;whiteSpace=wrap;html=1;" vertex="1" parent="1">
          <mxGeometry x="427" y="525" width="40" height="60" as="geometry" />
        </mxCell>
        <mxCell id="KlxNLc5BhY0RjW48FKh_-22" value="" style="endArrow=none;html=1;rounded=0;fontSize=12;startSize=8;endSize=8;curved=1;entryX=0.5;entryY=1;entryDx=0;entryDy=0;exitX=0.5;exitY=0;exitDx=0;exitDy=0;" edge="1" parent="1" source="KlxNLc5BhY0RjW48FKh_-23">
          <mxGeometry width="50" height="50" relative="1" as="geometry">
            <mxPoint x="600" y="520" as="sourcePoint" />
            <mxPoint x="600" y="440" as="targetPoint" />
          </mxGeometry>
        </mxCell>
        <mxCell id="KlxNLc5BhY0RjW48FKh_-23" value="" style="rounded=0;whiteSpace=wrap;html=1;" vertex="1" parent="1">
          <mxGeometry x="580" y="525" width="40" height="60" as="geometry" />
        </mxCell>
        <mxCell id="KlxNLc5BhY0RjW48FKh_-24" value="" style="endArrow=none;html=1;rounded=0;fontSize=12;startSize=8;endSize=8;curved=1;entryX=0.5;entryY=1;entryDx=0;entryDy=0;exitX=0.5;exitY=0;exitDx=0;exitDy=0;" edge="1" parent="1" source="KlxNLc5BhY0RjW48FKh_-25">
          <mxGeometry width="50" height="50" relative="1" as="geometry">
            <mxPoint x="750" y="520" as="sourcePoint" />
            <mxPoint x="750" y="440" as="targetPoint" />
          </mxGeometry>
        </mxCell>
        <mxCell id="KlxNLc5BhY0RjW48FKh_-25" value="" style="rounded=0;whiteSpace=wrap;html=1;" vertex="1" parent="1">
          <mxGeometry x="730" y="525" width="40" height="60" as="geometry" />
        </mxCell>
        <mxCell id="KlxNLc5BhY0RjW48FKh_-26" value="" style="endArrow=none;html=1;rounded=0;fontSize=12;startSize=8;endSize=8;curved=1;entryX=0.5;entryY=1;entryDx=0;entryDy=0;exitX=0.5;exitY=0;exitDx=0;exitDy=0;" edge="1" parent="1" source="KlxNLc5BhY0RjW48FKh_-27">
          <mxGeometry width="50" height="50" relative="1" as="geometry">
            <mxPoint x="900" y="520" as="sourcePoint" />
            <mxPoint x="900" y="440" as="targetPoint" />
          </mxGeometry>
        </mxCell>
        <mxCell id="KlxNLc5BhY0RjW48FKh_-27" value="" style="rounded=0;whiteSpace=wrap;html=1;" vertex="1" parent="1">
          <mxGeometry x="880" y="525" width="40" height="60" as="geometry" />
        </mxCell>
        <mxCell id="KlxNLc5BhY0RjW48FKh_-28" value="" style="endArrow=none;html=1;rounded=0;fontSize=12;startSize=8;endSize=8;curved=1;entryX=0.5;entryY=1;entryDx=0;entryDy=0;exitX=0.5;exitY=0;exitDx=0;exitDy=0;" edge="1" parent="1" source="KlxNLc5BhY0RjW48FKh_-29">
          <mxGeometry width="50" height="50" relative="1" as="geometry">
            <mxPoint x="1050" y="520" as="sourcePoint" />
            <mxPoint x="1050" y="440" as="targetPoint" />
          </mxGeometry>
        </mxCell>
        <mxCell id="KlxNLc5BhY0RjW48FKh_-29" value="" style="rounded=0;whiteSpace=wrap;html=1;" vertex="1" parent="1">
          <mxGeometry x="1030" y="525" width="40" height="60" as="geometry" />
        </mxCell>
        <mxCell id="KlxNLc5BhY0RjW48FKh_-30" value="" style="endArrow=none;html=1;rounded=0;fontSize=12;startSize=8;endSize=8;curved=1;entryX=0.5;entryY=1;entryDx=0;entryDy=0;exitX=0.5;exitY=0;exitDx=0;exitDy=0;" edge="1" parent="1" source="KlxNLc5BhY0RjW48FKh_-31">
          <mxGeometry width="50" height="50" relative="1" as="geometry">
            <mxPoint x="1210" y="520" as="sourcePoint" />
            <mxPoint x="1210" y="440" as="targetPoint" />
          </mxGeometry>
        </mxCell>
        <mxCell id="KlxNLc5BhY0RjW48FKh_-31" value="" style="rounded=0;whiteSpace=wrap;html=1;" vertex="1" parent="1">
          <mxGeometry x="1190" y="525" width="40" height="60" as="geometry" />
        </mxCell>
        <mxCell id="KlxNLc5BhY0RjW48FKh_-32" value="" style="endArrow=none;html=1;rounded=0;fontSize=12;startSize=8;endSize=8;curved=1;entryX=0.5;entryY=1;entryDx=0;entryDy=0;exitX=0.5;exitY=0;exitDx=0;exitDy=0;" edge="1" parent="1" source="KlxNLc5BhY0RjW48FKh_-33">
          <mxGeometry width="50" height="50" relative="1" as="geometry">
            <mxPoint x="1370" y="520" as="sourcePoint" />
            <mxPoint x="1370" y="440" as="targetPoint" />
          </mxGeometry>
        </mxCell>
        <mxCell id="KlxNLc5BhY0RjW48FKh_-33" value="" style="rounded=0;whiteSpace=wrap;html=1;" vertex="1" parent="1">
          <mxGeometry x="1350" y="525" width="40" height="60" as="geometry" />
        </mxCell>
        <mxCell id="KlxNLc5BhY0RjW48FKh_-34" value="" style="endArrow=none;html=1;rounded=0;fontSize=12;startSize=8;endSize=8;curved=1;entryX=0;entryY=1;entryDx=0;entryDy=0;exitX=0.5;exitY=0;exitDx=0;exitDy=0;" edge="1" parent="1" source="KlxNLc5BhY0RjW48FKh_-3" target="KlxNLc5BhY0RjW48FKh_-1">
          <mxGeometry width="50" height="50" relative="1" as="geometry">
            <mxPoint x="160" y="410" as="sourcePoint" />
            <mxPoint x="210" y="360" as="targetPoint" />
          </mxGeometry>
        </mxCell>
        <mxCell id="KlxNLc5BhY0RjW48FKh_-35" value="" style="endArrow=none;html=1;rounded=0;fontSize=12;startSize=8;endSize=8;curved=1;entryX=0.5;entryY=1;entryDx=0;entryDy=0;exitX=0.5;exitY=0;exitDx=0;exitDy=0;" edge="1" parent="1" source="KlxNLc5BhY0RjW48FKh_-6" target="KlxNLc5BhY0RjW48FKh_-3">
          <mxGeometry width="50" height="50" relative="1" as="geometry">
            <mxPoint x="140" y="360" as="sourcePoint" />
            <mxPoint x="190" y="310" as="targetPoint" />
          </mxGeometry>
        </mxCell>
        <mxCell id="KlxNLc5BhY0RjW48FKh_-36" value="" style="endArrow=none;html=1;rounded=0;fontSize=12;startSize=8;endSize=8;curved=1;entryX=0.5;entryY=1;entryDx=0;entryDy=0;exitX=0.5;exitY=0;exitDx=0;exitDy=0;" edge="1" parent="1" source="KlxNLc5BhY0RjW48FKh_-5" target="KlxNLc5BhY0RjW48FKh_-3">
          <mxGeometry width="50" height="50" relative="1" as="geometry">
            <mxPoint x="140" y="360" as="sourcePoint" />
            <mxPoint x="190" y="310" as="targetPoint" />
          </mxGeometry>
        </mxCell>
        <mxCell id="KlxNLc5BhY0RjW48FKh_-37" value="" style="endArrow=none;html=1;rounded=0;fontSize=12;startSize=8;endSize=8;curved=1;entryX=0.5;entryY=1;entryDx=0;entryDy=0;exitX=0.5;exitY=0;exitDx=0;exitDy=0;" edge="1" parent="1" source="KlxNLc5BhY0RjW48FKh_-4" target="KlxNLc5BhY0RjW48FKh_-3">
          <mxGeometry width="50" height="50" relative="1" as="geometry">
            <mxPoint x="140" y="360" as="sourcePoint" />
            <mxPoint x="190" y="310" as="targetPoint" />
          </mxGeometry>
        </mxCell>
        <mxCell id="KlxNLc5BhY0RjW48FKh_-38" value="" style="endArrow=none;html=1;rounded=0;fontSize=12;startSize=8;endSize=8;curved=1;entryX=0.5;entryY=1;entryDx=0;entryDy=0;exitX=0.5;exitY=0;exitDx=0;exitDy=0;" edge="1" parent="1" source="KlxNLc5BhY0RjW48FKh_-7" target="KlxNLc5BhY0RjW48FKh_-2">
          <mxGeometry width="50" height="50" relative="1" as="geometry">
            <mxPoint x="720" y="410" as="sourcePoint" />
            <mxPoint x="770" y="360" as="targetPoint" />
          </mxGeometry>
        </mxCell>
        <mxCell id="KlxNLc5BhY0RjW48FKh_-39" value="" style="endArrow=none;html=1;rounded=0;fontSize=12;startSize=8;endSize=8;curved=1;entryX=0.5;entryY=1;entryDx=0;entryDy=0;exitX=0.5;exitY=0;exitDx=0;exitDy=0;" edge="1" parent="1" source="KlxNLc5BhY0RjW48FKh_-11" target="KlxNLc5BhY0RjW48FKh_-2">
          <mxGeometry width="50" height="50" relative="1" as="geometry">
            <mxPoint x="800" y="330" as="sourcePoint" />
            <mxPoint x="850" y="280" as="targetPoint" />
          </mxGeometry>
        </mxCell>
        <mxCell id="KlxNLc5BhY0RjW48FKh_-40" value="" style="endArrow=none;html=1;rounded=0;fontSize=12;startSize=8;endSize=8;curved=1;entryX=0.5;entryY=1;entryDx=0;entryDy=0;exitX=0.5;exitY=0;exitDx=0;exitDy=0;" edge="1" parent="1" source="KlxNLc5BhY0RjW48FKh_-13" target="KlxNLc5BhY0RjW48FKh_-2">
          <mxGeometry width="50" height="50" relative="1" as="geometry">
            <mxPoint x="800" y="330" as="sourcePoint" />
            <mxPoint x="850" y="280" as="targetPoint" />
          </mxGeometry>
        </mxCell>
        <mxCell id="KlxNLc5BhY0RjW48FKh_-41" value="" style="endArrow=none;html=1;rounded=0;fontSize=12;startSize=8;endSize=8;curved=1;entryX=0.5;entryY=1;entryDx=0;entryDy=0;exitX=0.5;exitY=0;exitDx=0;exitDy=0;" edge="1" parent="1" source="KlxNLc5BhY0RjW48FKh_-10" target="KlxNLc5BhY0RjW48FKh_-2">
          <mxGeometry width="50" height="50" relative="1" as="geometry">
            <mxPoint x="800" y="330" as="sourcePoint" />
            <mxPoint x="850" y="280" as="targetPoint" />
          </mxGeometry>
        </mxCell>
        <mxCell id="KlxNLc5BhY0RjW48FKh_-42" value="" style="endArrow=none;html=1;rounded=0;fontSize=12;startSize=8;endSize=8;curved=1;entryX=0.5;entryY=1;entryDx=0;entryDy=0;exitX=0.5;exitY=0;exitDx=0;exitDy=0;" edge="1" parent="1" source="KlxNLc5BhY0RjW48FKh_-9" target="KlxNLc5BhY0RjW48FKh_-2">
          <mxGeometry width="50" height="50" relative="1" as="geometry">
            <mxPoint x="800" y="330" as="sourcePoint" />
            <mxPoint x="850" y="280" as="targetPoint" />
          </mxGeometry>
        </mxCell>
        <mxCell id="KlxNLc5BhY0RjW48FKh_-43" value="" style="endArrow=none;html=1;rounded=0;fontSize=12;startSize=8;endSize=8;curved=1;entryX=0.5;entryY=1;entryDx=0;entryDy=0;exitX=0.5;exitY=0;exitDx=0;exitDy=0;" edge="1" parent="1" source="KlxNLc5BhY0RjW48FKh_-8" target="KlxNLc5BhY0RjW48FKh_-2">
          <mxGeometry width="50" height="50" relative="1" as="geometry">
            <mxPoint x="800" y="330" as="sourcePoint" />
            <mxPoint x="910" y="290" as="targetPoint" />
          </mxGeometry>
        </mxCell>
        <mxCell id="KlxNLc5BhY0RjW48FKh_-44" value="" style="endArrow=none;html=1;rounded=0;fontSize=12;startSize=8;endSize=8;curved=1;entryX=0.5;entryY=1;entryDx=0;entryDy=0;exitX=0.5;exitY=0;exitDx=0;exitDy=0;" edge="1" parent="1" source="KlxNLc5BhY0RjW48FKh_-12" target="KlxNLc5BhY0RjW48FKh_-2">
          <mxGeometry width="50" height="50" relative="1" as="geometry">
            <mxPoint x="1270" y="320" as="sourcePoint" />
            <mxPoint x="1320" y="270" as="targetPoint" />
          </mxGeometry>
        </mxCell>
        <mxCell id="KlxNLc5BhY0RjW48FKh_-45" value="" style="endArrow=none;html=1;rounded=0;fontSize=12;startSize=8;endSize=8;curved=1;entryX=1;entryY=1;entryDx=0;entryDy=0;exitX=0.5;exitY=0;exitDx=0;exitDy=0;" edge="1" parent="1" source="KlxNLc5BhY0RjW48FKh_-2" target="KlxNLc5BhY0RjW48FKh_-1">
          <mxGeometry width="50" height="50" relative="1" as="geometry">
            <mxPoint x="630" y="180" as="sourcePoint" />
            <mxPoint x="680" y="130" as="targetPoint" />
          </mxGeometry>
        </mxCell>
      </root>
    </mxGraphModel>
  </diagram>
</mxfile>
